<svg height="405" viewBox="0 0 552 405" width="552" xmlns="http://www.w3.org/2000/svg" xmlns:xlink="http://www.w3.org/1999/xlink"><linearGradient id="a"><stop offset="0" stop-color="#808080" stop-opacity=".25"/><stop offset=".54" stop-color="#808080" stop-opacity=".12"/><stop offset="1" stop-color="#808080" stop-opacity=".1"/></linearGradient><linearGradient id="b" x1="50.000046%" x2="50.000046%" xlink:href="#a" y1="100%" y2="0%"/><linearGradient id="c" x1="-296495.247%" x2="-296495.247%" xlink:href="#a" y1="75778.1667%" y2="20559.9973%"/><g fill="none" fill-rule="evenodd"><path d="m73.0523 205.187c-7.2599 2.193-14.0551 7.504-15.8686 14.873-2.0743 8.468 2.709 17.004 3.4004 25.699 2.2329 28.488-38.2886 48.588-32.508 76.571 2.2953 11.127 11.5728 19.311 20.7142 26.074 14.6445 10.797 30.8928 20.337 48.8866 23.029 27.3111 4.093 55.8461-7.935 82.3921-.334 21.411 6.133 37.795 24.106 59.059 30.738 16.186 5.05 33.625 3.061 50.44 1.015 9.068-1.1 18.566-2.37 25.883-7.811 13.601-10.129 14.457-30.132 23.564-44.467 14.067-22.105 44.908-26.447 70.769-22.151 25.86 4.297 50.972 14.874 77.172 14.012 5.599-.187 11.335-.947 16.22-3.696 5.939-3.338 9.952-9.222 13.5-15.043 22.173-36.521 34.344-78.236 35.29-120.952.153-7.341-.108-14.998-3.559-21.477-4.364-8.196-13.086-13.099-21.768-16.398-20.85-7.935-43.883-9.233-64.313-18.183-19.706-8.633-35.665-23.772-52.826-36.747-34.198-25.8054-73.836-43.4607-115.891-51.6195-9.856-1.9045-20.086-3.2649-29.879-1.0656-11.283 2.5336-21.009 9.5678-29.753 17.1404-23.265 20.1446-41.91 44.9997-63.35 67.0767-14.79 15.225-30.895 29.115-48.127 41.508-7.934 5.719-16.367 12.509-25.2085 16.738-8.093 3.866-15.6815 2.891-24.2392 5.47z" fill="#e3e2f3" fill-rule="nonzero" opacity=".8524"/><path d="m176.753 26.1528s-21.904 29.0946-6.234 63.0071c15.67 33.9121-27.311 88.4001-27.311 88.4001" stroke="#535461" stroke-width="2"/><g fill-rule="nonzero"><path d="m186.575 15.2643c-1.74 7.4876-10.065 11.9485-10.065 11.9485s-5.498-7.6804-3.758-15.168 6.234-12.838318 10.065-11.9484203c3.832.8898983 5.498 7.6803303 3.758 15.1679203z" fill="#8ed16f"/><path d="m180.983 13.9596c.547-2.3508.276-4.42265-.605-4.6277s-2.039 1.5344-2.586 3.8851c-.547 2.3508-.276 4.4227.605 4.6277.881.2051 2.039-1.5344 2.586-3.8851z" fill="#8ed16f"/><path d="m180.983 13.9596c.547-2.3508.276-4.42265-.605-4.6277s-2.039 1.5344-2.586 3.8851c-.547 2.3508-.276 4.4227.605 4.6277.881.2051 2.039-1.5344 2.586-3.8851z" fill="#000" opacity=".3"/><path d="m182.789 48.5306c-7.232 2.6073-15.5-1.9612-15.5-1.9612s3.457-8.7913 10.694-11.3929c7.237-2.6017 14.168-1.7005 15.5 1.9611 1.332 3.6617-3.462 8.7857-10.694 11.393z" fill="#8ed16f"/><path d="m180.758 42.7577c2.268-.8206 3.858-2.1752 3.55-3.0256-.307-.8504-2.396-.8746-4.664-.054s-3.858 2.1753-3.551 3.0257c.308.8504 2.396.8746 4.665.0539z" fill="#8ed16f"/><path d="m180.758 42.7577c2.268-.8206 3.858-2.1752 3.55-3.0256-.307-.8504-2.396-.8746-4.664-.054s-3.858 2.1753-3.551 3.0257c.308.8504 2.396.8746 4.665.0539z" fill="#000" opacity=".3"/><path d="m181.106 75.0405c-7.232 2.6073-15.5-1.9612-15.5-1.9612s3.457-8.7913 10.694-11.3929c7.237-2.6017 14.168-1.7005 15.5 1.9611s-3.463 8.7913-10.694 11.393z" fill="#8ed16f"/><path d="m179.159 69.6683c2.27-.8176 3.863-2.1704 3.556-3.0216-.306-.8512-2.395-.8785-4.666-.0609-2.27.8175-3.863 2.1703-3.556 3.0216.306.8512 2.395.8784 4.666.0609z" fill="#8ed16f"/><path d="m179.159 69.6683c2.27-.8176 3.863-2.1704 3.556-3.0216-.306-.8512-2.395-.8785-4.666-.0609-2.27.8175-3.863 2.1703-3.556 3.0216.306.8512 2.395.8784 4.666.0609z" fill="#000" opacity=".3"/><path d="m189.556 106.142c-7.232 2.607-15.5-1.962-15.5-1.962s3.457-8.7909 10.694-11.3925c7.237-2.6017 14.168-1.7005 15.5 1.9611s-3.463 8.8024-10.694 11.3934z" fill="#8ed16f"/><path d="m187.61 100.783c2.27-.8174 3.863-2.1702 3.556-3.0214-.306-.8513-2.395-.8785-4.666-.061-2.27.8176-3.863 2.1704-3.556 3.0214.306.851 2.395.879 4.666.061z" fill="#8ed16f"/><path d="m187.61 100.783c2.27-.8174 3.863-2.1702 3.556-3.0214-.306-.8513-2.395-.8785-4.666-.061-2.27.8176-3.863 2.1704-3.556 3.0214.306.851 2.395.879 4.666.061z" fill="#000" opacity=".3"/><path d="m184.059 134.584c-7.232 2.608-15.501-1.961-15.501-1.961s3.457-8.791 10.695-11.393c7.237-2.601 14.168-1.7 15.5 1.961 1.332 3.662-3.457 8.792-10.694 11.393z" fill="#8ed16f"/><path d="m182.128 128.743c2.268-.821 3.858-2.176 3.55-3.026-.307-.85-2.395-.875-4.664-.054-2.268.821-3.858 2.175-3.55 3.026.307.85 2.395.874 4.664.054z" fill="#8ed16f"/><path d="m182.128 128.743c2.268-.821 3.858-2.176 3.55-3.026-.307-.85-2.395-.875-4.664-.054-2.268.821-3.858 2.175-3.55 3.026.307.85 2.395.874 4.664.054z" fill="#000" opacity=".3"/><path d="m150.14 56.0636c5.338 5.5321 14.774 5.1013 14.774 5.1013s.777-9.4148-4.562-14.9469-11.952-7.8107-14.775-5.1013c-2.822 2.7094-.776 9.4148 4.563 14.9469z" fill="#8ed16f"/><path d="m158.484 54.1004c.65-.6284-.181-2.5454-1.857-4.2819s-3.562-2.6348-4.213-2.0064c-.651.6283.18 2.5453 1.856 4.2818s3.563 2.6348 4.214 2.0065z" fill="#8ed16f"/><path d="m158.484 54.1004c.65-.6284-.181-2.5454-1.857-4.2819s-3.562-2.6348-4.213-2.0064c-.651.6283.18 2.5453 1.856 4.2818s3.563 2.6348 4.214 2.0065z" fill="#000" opacity=".3"/><path d="m147.073 143.914c5.339 5.532 14.775 5.101 14.775 5.101s.777-9.414-4.562-14.946c-5.339-5.533-11.952-7.811-14.775-5.102-2.822 2.71-.776 9.415 4.562 14.947z" fill="#8ed16f"/><path d="m155.41 141.959c.651-.629-.181-2.546-1.857-4.282-1.676-1.737-3.562-2.635-4.213-2.007-.651.629.181 2.546 1.857 4.282 1.676 1.737 3.562 2.635 4.213 2.007z" fill="#8ed16f"/><path d="m155.41 141.959c.651-.629-.181-2.546-1.857-4.282-1.676-1.737-3.562-2.635-4.213-2.007-.651.629.181 2.546 1.857 4.282 1.676 1.737 3.562 2.635 4.213 2.007z" fill="#000" opacity=".3"/><path d="m154.152 87.1137c6.88 3.4348 15.625-.1361 15.625-.1361s-2.409-9.1313-9.283-12.5662c-6.875-3.4349-13.874-3.4009-15.625.136s2.403 9.1314 9.283 12.5663z" fill="#8ed16f"/><path d="m161.343 82.4622c.404-.8095-1.019-2.3393-3.178-3.417-2.16-1.0777-4.238-1.2951-4.641-.4856-.404.8095 1.019 2.3394 3.178 3.417 2.159 1.0777 4.237 1.2951 4.641.4856z" fill="#8ed16f"/><path d="m161.343 82.4622c.404-.8095-1.019-2.3393-3.178-3.417-2.16-1.0777-4.238-1.2951-4.641-.4856-.404.8095 1.019 2.3394 3.178 3.417 2.159 1.0777 4.237 1.2951 4.641.4856z" fill="#000" opacity=".3"/><path d="m157.037 118.045c6.88 3.435 15.625-.136 15.625-.136s-2.409-9.132-9.284-12.567c-6.874-3.434-13.873-3.4-15.624.136-1.752 3.537 2.431 9.166 9.283 12.567z" fill="#8ed16f"/><path d="m164.23 113.397c.404-.809-1.019-2.339-3.178-3.417-2.159-1.077-4.237-1.295-4.641-.485-.404.809 1.019 2.339 3.178 3.417 2.159 1.077 4.237 1.295 4.641.485z" fill="#8ed16f"/><path d="m164.23 113.397c.404-.809-1.019-2.339-3.178-3.417-2.159-1.077-4.237-1.295-4.641-.485-.404.809 1.019 2.339 3.178 3.417 2.159 1.077 4.237 1.295 4.641.485z" fill="#000" opacity=".3"/><path d="m71.2555 88.6894s40.0055 40.0116 17.4215 99.3856c-22.5844 59.373 38.714 158.107 38.714 158.107s-.658-.097-1.876-.312c-82.1768-14.505-122.98176-108.494-77.3029-178.314 16.9624-25.96 30.9324-56.409 23.0434-78.8666z" fill="#8ed16f"/><path d="m0 250.52s45.6505-7.272 49.8104 33.647c4.1598 40.918 87.7816 46.592 87.7816 46.592s-.567.374-1.57 1.043c-69.0452 45.345-135.047213 28.873-125.101-31.317 3.7064-22.383 3.4004-44.858-10.921-49.965z" fill="#8ed16f"/><path d="m0 .52s45.6505-7.272 49.8104 33.647c4.1598 40.918 87.7816 46.592 87.7816 46.592s-.567.374-1.57 1.043c-69.0452 45.345-135.047213 28.873-125.101-31.317 3.7064-22.383 3.4004-44.858-10.921-49.965z" fill="#fff" opacity=".3" transform="translate(0 250)"/><path d="m59.6999 250.016c6.9329 0 12.5532-14.665 12.5532-32.756s-5.6203-32.756-12.5532-32.756-12.5532 14.665-12.5532 32.756 5.6203 32.756 12.5532 32.756z" fill="#8ed16f"/><path d="m59.6999 250.016c6.9329 0 12.5532-14.665 12.5532-32.756s-5.6203-32.756-12.5532-32.756-12.5532 14.665-12.5532 32.756 5.6203 32.756 12.5532 32.756z" fill="#000" opacity=".3"/><path d="m58.5529 336.224c3.3044-3.305.021-11.947-7.3336-19.303-7.3545-7.355-15.9953-10.639-19.2997-7.334-3.3044 3.304-.021 11.946 7.3336 19.302s15.9954 10.64 19.2997 7.335z" fill="#8ed16f"/><path d="m58.5529 336.224c3.3044-3.305.021-11.947-7.3336-19.303-7.3545-7.355-15.9953-10.639-19.2997-7.334-3.3044 3.304-.021 11.946 7.3336 19.302s15.9954 10.64 19.2997 7.335z" fill="#000" opacity=".3"/><path d="m410.254 150.466h-297.162c-3.591 0-7.035 1.427-9.574 3.967-2.539 2.539-3.9653 5.983-3.9653 9.575v174.199c0 3.591 1.4263 7.035 3.9653 9.575 2.539 2.539 5.983 3.966 9.574 3.966h297.162c3.591 0 7.035-1.427 9.574-3.966 2.539-2.54 3.965-5.984 3.965-9.575v-174.199c0-3.592-1.426-7.036-3.965-9.575-2.539-2.54-5.983-3.967-9.574-3.967z" fill="url(#b)"/><path d="m405.913 152.836h-288.485c-7.766 0-14.061 6.296-14.061 14.062v168.418c0 7.766 6.295 14.063 14.061 14.063h288.485c7.765 0 14.061-6.297 14.061-14.063v-168.418c0-7.766-6.296-14.062-14.061-14.062z" fill="#6c63ff"/><path d="m419.974 187.23h-316.607v36.032h316.607z" fill="#6c63ff"/><path d="m419.974 187.23h-316.607v36.032h316.607z" fill="#000" opacity=".3"/><path d="m389.953 250.016h-256.561v17.469h256.561z" fill="#d6d6e3"/><path d="m154.679 336.279c13.869 0 25.112-11.244 25.112-25.115s-11.243-25.116-25.112-25.116-25.112 11.245-25.112 25.116 11.243 25.115 25.112 25.115z" fill="#6c63ff"/><path d="m154.679 336.279c13.869 0 25.112-11.244 25.112-25.115s-11.243-25.116-25.112-25.116-25.112 11.245-25.112 25.116 11.243 25.115 25.112 25.115z" fill="#000" opacity=".3"/><path d="m401.974 104.373c.405 1.282 1.266 2.371 2.42 3.061 5.208 3.44 16.532 2.709 17.892 2.709.289 0 .668.516 1.088 1.383 2 4.127 5.1 16.223 5.31 18.943.278 3.293 3.338 18.705 8.348 24.447.153.176.306.34.454.493 4.913 4.937 10.677-.493 10.677-.493l.827-2.874c-.232 1.134-.493 2.455-.753 3.934-.131.742-.261 1.53-.386 2.341-.747 4.567-1.139 9.185-1.173 13.813-.013 1.68.059 3.36.215 5.033.046.465.097.924.159 1.372.256 2.038.381 4.09.374 6.144-.045 12.198-3.157 27.372-3.157 27.372l.119-.04c-.073.38-.119.567-.119.567l.182-.057c-.087.563-.17 1.14-.25 1.729-1.054 7.652-1.66 17.175-1.949 22.673-.15 2.9-.021 5.808.385 8.683l5.532 38.946v18.138c-.019 2.749.316 5.488.997 8.151 1.802 6.853.317 30.772-.516 42.12-.232 3.095-.413 5.26-.464 5.883v.187l.158-.062v.198c.236-.101.484-.173.737-.215-2.193 3.401-6.166 9.024-9.221 9.97-1.8.549-3.401 1.61-4.607 3.055l-.08.108-.113.159c-.378.505-.607 1.106-.663 1.734-.044-.108-.078-.22-.102-.334-.233 1.264.527 2.42 2.913 2.981 1.391.266 2.807.38 4.222.34 8.274 0 22.959-2.545 24.579-5.282v-9.443l.267.085v.085l1.014.334 2.783-9.341c3.338-2.471.567-46.7 0-56.863-.51-9.262 5.219-46.105 6.234-52.595l-.136-.164.153-.947c.204.149.394.316.567.499.333.396.623.825.867 1.281.479.811.89 1.661 1.23 2.54 5.599 13.966 8.121 53.904 8.121 57.486v37.557c-.012 3.706.504 7.395 1.53 10.956.514 1.875.912 3.779 1.19 5.703.119.753.221 1.502.318 2.216.096.714.192 1.53.266 2.199 0 .176.04.346.057.505.017.158 0 .153 0 .232.153 1.479.232 2.449.232 2.449.021-.082.06-.157.113-.221l.029.357c.04-.136.116-.257.221-.352.23-.226.481-.431.748-.612v4.773l-.136-.102v.822c5.769 4.353 15.16 5.668 22.369 5.617 4.675 0 8.461-.567 9.776-1.225 1.882-.924.85-3.077-.861-4.727-1.327-1.281-3.055-2.267-4.149-2.142-1.825.198-8.065-6.87-11.335-10.742l.369-.164.521-.227v-62.621s.839-24.725 3.338-49.177c1.186-12.326-.273-24.763-4.279-36.48l-.079-.233.759.119c.805.125 1.236.199 1.236.199s0-.193-.051-.567h.051s-.975-10.605-.986-23.925c0-15.1 1.275-33.51 6.551-43.928 3.038-5.997 4.053-10.77 3.967-14.533.133-3.312-.82-6.576-2.714-9.296-.795-1.095-1.875-1.95-3.123-2.472l-.108-.062h-.056c-.912-.369-1.885-.561-2.868-.567h-11.397c-1.319.001-2.616-.34-3.763-.992l-4.46-2.528c-1.485-3.247-1.701-7.272-1.383-11.0468 0-.3004.057-.6008.085-.8956l.323-.3401c.249-.2664.482-.5668.708-.8218-.005.2236-.022.4469-.051.6688-.056.3571-.153.5668-.306.6121 2.437-.3174 5.158-.7992 6.654-2.681.062-.0737.119-.153.175-.2324.443-.7158.809-1.4756 1.094-2.2672.21-.5409.49-1.0516.833-1.5191.374-.4875.862-.8842 1.264-1.349l.068-.0794c1.434-1.7004 1.513-4.1377 1.53-6.3596.029-5.3961-.13-11.3363-3.74-15.3834-2.998-3.3668-7.781-4.6422-12.321-4.7895-4.539-.1474-9.068.6688-13.602.6915-3.083 0-6.8-.051-8.501 2.4996-.833 1.2527-.935 2.8908-1.842 4.0924-.521.6915-1.32 1.2867-1.365 2.1482-.006.3976.096.7893.294 1.1337v.0397c1.1 2.1652 3.435 3.5142 5.872 3.9393-.412.4959-.791 1.0185-1.134 1.5644-1.488 2.3788-2.273 5.1295-2.267 7.9354 0 .3288 0 .6518.034.9749.253 3.8111 1.952 7.3816 4.75 9.9816-.046.3174-.091.6349-.142.9466l.102.0907c.321.291.655.567 1.003.828l.125.096v.567c0 .328 0 .663-.034.986s0 .521-.034.782l-.074-.062-5.537-4.6254-8.903-8.2414s-22.262-16.2053-23.378-8.5023c-.135 1.3681.242 2.7376 1.06 3.843 4.086 6.235 18.135 11.5404 18.135 11.5404s8.376 8.8597 13.981 18.4097c-.198.108-.396.21-.606.306-4.987 2.319-12.264 1.338-12.264 1.338-8.405 1.309-9.164 10.52-9.119 14.244v.499.272l-11.153-26.192-.034-.08c-.364-.852-.937-1.6-1.666-2.172-.729-.573-1.591-.953-2.505-1.104-7.459-1.253-26.099-3.8656-24.54 1.638zm46.693 254.5c.163-.039.327-.069.493-.091l-.051.079z" fill="url(#c)"/><path d="m504.394 353.516s10.564 13.281 13.007 13.009c2.442-.272 8.127 5.146 4.879 6.801-3.247 1.656-21.944 2.71-31.17-4.336v-10.616z" fill="#12122c"/><path d="m451.013 354.327s-6.234 11.109-10.563 12.47c-4.33 1.36-8.127 6.235-2.437 7.589 5.69 1.355 26.013-1.626 27.906-4.88v-14.369z" fill="#12122c"/><path d="m443.187 245.187 5.384 38.418v17.861c-.017 2.709.311 5.41.975 8.037 1.756 6.762.311 30.353-.505 41.548-.266 3.65-.47 5.985-.47 5.985 3.519-1.627 18.424 3.52 18.424 3.52l1.508-5.13 1.201-4.081c3.253-2.437.567-46.065 0-56.114-.368-6.864 2.692-29.117 4.653-42.455.567-3.769 1.026-6.801 1.304-8.627.175-1.133.272-1.762.272-1.762.597.487 1.094 1.086 1.462 1.762.466.802.866 1.639 1.196 2.506 5.452 13.779 7.934 53.173 7.934 56.681v37.047c-.011 3.655.491 7.294 1.491 10.809.671 2.565 1.161 5.173 1.467 7.805.386 2.942.567 5.311.567 5.311.272-1.626 17.07-8.944 17.07-8.944v-61.783s.811-24.373 3.253-48.508c1.05-10.978-.008-22.056-3.117-32.637-.674-2.307-1.349-4.262-1.932-5.81-.992-2.635-1.701-4.092-1.701-4.092h-55.336c-.929.176-1.7 2.046-2.397 4.886-.453 1.904-.85 4.24-1.196 6.802-1.025 7.544-1.615 16.936-1.898 22.366-.143 2.872-.012 5.752.391 8.599z" fill="#16325c"/><g fill="#000" opacity=".1" transform="translate(448 202)"><path d="m58.145 153.54v-61.783s.811-24.373 3.253-48.508c2.443-24.135-6.8-42.545-6.8-42.545h1.082s9.21 18.427 6.801 42.545-3.253 48.508-3.253 48.508v61.783s-16.798 7.317-17.07 8.944c0 0 0-.363-.085-.986 3.661-2.545 16.072-7.958 16.072-7.958z"/><path d="m2.197 154.866c-.511.011-1.016.114-1.49.306v-.272c.495-.049.993-.061 1.49-.034z"/><path d="m20.758 149.481c3.253-2.437.567-46.065 0-56.114-.567-10.05 6.234-52.839 6.234-52.839.356.275.671.6.935.964-.997 6.394-6.574 42.743-6.081 51.875.567 10.027 3.253 53.654 0 56.114l-2.709 9.211-.986-.329z"/></g><path d="m454.261 135.644-5.668 20.054s-5.962 5.668-10.836 0c-4.873-5.668-7.877-20.864-8.172-24.118-.295-3.253-4.607-20.054-6.234-20.054-1.626 0-17.88 1.083-19.779-5.668-1.519-5.43 16.628-2.834 23.894-1.615.894.152 1.736.528 2.446 1.093.711.565 1.267 1.3 1.617 2.138l11.142 26.612s5.9-6.842 11.59 1.558z" fill="#bb8557"/><path d="m490.838 89.0352s-7.045 19.7818 1.898 26.8268c8.944 7.046-31.98 8.945-31.98 8.945l5.554-5.283s3.927-15.582 1.218-28.59z" fill="#bb8557"/><path d="m482.167 115.862s7.181-1.762 7.181-3.655l6.364 3.655h15.988s11.652 6.502 1.898 26.017c-9.753 19.516-5.418 67.451-5.418 67.451s-34.678-6.235-63.401 3.254c0 0 4.336-21.409 2.709-33.601-1.626-12.192 2.709-29.265 2.709-29.265l2.437-10.299s-.136-9.636-10.161-4.744c0 0-1.491-13.955 8.807-15.582 0 0 11.901 1.627 15.443-4.336 0 .023 7.861 4.631 15.444 1.105z" fill="#000" opacity=".1"/><path d="m482.167 115.324s7.18-1.763 7.18-3.656l4.665 2.681c1.114.639 2.376.975 3.661.975h11.181c1.169-.003 2.322.271 3.364.802 1.041.53 1.942 1.3 2.627 2.247 2.567 3.611 4.868 10.73-1.247 22.968-9.753 19.509-5.418 67.451-5.418 67.451s-34.678-6.235-63.401 3.253c0 0 4.336-21.408 2.709-33.601-1.626-12.192 2.709-29.225 2.709-29.225l2.437-10.299s-.136-9.635-10.161-4.744c0 0-1.451-13.569 8.382-15.508.273-.061.554-.08.833-.056 2.102.221 11.901.929 15.041-4.382-.006.006 7.855 4.614 15.438 1.094z" fill="#f5a623"/><path d="m509.535 139.98s-8.672 5.419-22.761 0c0 0-15.443-5.668-20.323-16.8-4.879-11.132 24.653 1.899 24.653 1.899s6.234 0 8.127-1.355 15.177 10.294 10.304 16.256z" fill="#000" opacity=".1"/><path d="m509.535 138.898s-8.671 5.419-22.76 0c0 0-15.444-5.668-20.324-16.801-4.879-11.132-16.253-23.324-16.253-23.324s-19.779-7.5896-18.703-15.1736c1.077-7.584 22.76 8.4002 22.76 8.4002l8.671 8.1284 28.178 23.846s6.234 0 8.127-1.355 15.178 10.316 10.304 16.279z" fill="#bb8557"/><path d="m467.267 91.7445 23.299-1.8988c-1.198 3.5824-2.013 7.2817-2.431 11.0363-2.709 2.809-6.412 4.442-10.313 4.548-3.9.106-7.686-1.324-10.543-3.982.593-3.2073.59-6.4971-.012-9.7035z" fill="#000" opacity=".1"/><path d="m477.701 104.617c8.229 0 14.899-6.6718 14.899-14.9017s-6.67-14.9015-14.899-14.9015-14.899 6.6716-14.899 14.9015 6.67 14.9017 14.899 14.9017z" fill="#bb8557"/><path d="m485.879 92.9518c-.873-1.4397.901-3.3158.317-4.8916-.538-1.451-2.68-1.7004-3.4-3.0551-.567-1.094 0-2.4373-.227-3.6446-.323-1.5588-2-2.528-3.593-2.6074-1.592-.0793-3.128.5158-4.641 1.026-2.466.8332-5.061 1.4737-7.646 1.1789-2.584-.2947-5.163-1.7004-6.313-4.0073-.188-.3361-.288-.7145-.289-1.0997.045-.8502.827-1.434 1.332-2.1142.884-1.1846.986-2.8 1.791-4.0357 1.643-2.5166 5.253-2.4543 8.257-2.4656 4.42 0 8.818-.8276 13.239-.6802 4.42.1474 9.068 1.4 11.998 4.7216 3.513 3.996 3.672 9.8455 3.644 15.1736 0 2.1935-.091 4.5798-1.491 6.2746-.408.4931-.907.9012-1.298 1.4057-.85 1.1336-1.076 2.5847-1.875 3.7353-1.417 2.0462-4.183 2.5449-6.648 2.8739.725-.097.124-4.9541 0-5.4019-.476-2.2332-.992-2.1879-3.157-2.3863z" fill="#000" opacity=".1"/><path d="m485.879 92.4134c-.873-1.4397.901-3.3159.317-4.8916-.538-1.4511-2.68-1.7005-3.4-3.0552-.567-1.0939 0-2.4373-.227-3.6446-.323-1.5587-2-2.528-3.593-2.6073-1.592-.0794-3.128.5158-4.641 1.0259-2.466.8332-5.061 1.4737-7.646 1.179-2.584-.2948-5.163-1.7005-6.313-4.0074-.188-.336-.288-.7145-.289-1.0996.045-.8502.827-1.434 1.332-2.1142.884-1.1847.986-2.8001 1.791-4.0357 1.643-2.5167 5.253-2.4543 8.257-2.4657 4.42 0 8.818-.8275 13.239-.6802 4.42.1474 9.068 1.4001 11.998 4.7216 3.513 3.996 3.672 9.8456 3.644 15.1736 0 2.1936-.091 4.5799-1.491 6.2746-.408.4932-.907.9013-1.298 1.4057-.85 1.1337-1.076 2.5847-1.875 3.7353-1.417 2.0462-4.183 2.545-6.648 2.8734.725-.096.124-4.9536 0-5.4014-.476-2.2615-.992-2.1935-3.157-2.3862z" fill="#140e12"/><path d="m509.398 140.661s-7.316-18.972-13.006-19.51c-5.69-.539 10.836 0 10.836 0l5.418 9.755z" fill="#000" opacity=".1"/><path d="m509.943 140.661s-7.317-18.972-13.007-19.51c-5.69-.539 10.836 0 10.836 0l5.418 9.755z" fill="#f5a623"/><path d="m489.461 359.043c.385 2.942.567 5.311.567 5.311.272-1.627 17.07-8.945 17.07-8.945v-4.404c-.428-.016-.857.005-1.281.063-3.259.436-6.279 2.018-9.068 3.707-2.355 1.546-4.788 2.97-7.288 4.268z" fill="#618fd8"/><path d="m489.461 359.043c.385 2.942.567 5.311.567 5.311.272-1.627 17.07-8.945 17.07-8.945v-4.404c-.428-.016-.857.005-1.281.063-3.259.436-6.279 2.018-9.068 3.707-2.355 1.546-4.788 2.97-7.288 4.268z" fill="#12122c" opacity=".663481"/><path d="m448.571 357.036c3.519-1.627 18.424 3.52 18.424 3.52l1.508-5.13c-2.601-.527-5.186-1.184-7.725-1.966-1.185-.344-2.344-.772-3.468-1.281-.751-.401-1.523-.761-2.312-1.077-1.944-.669-3.968-.386-5.962-.051-.261 3.65-.465 5.985-.465 5.985z" fill="#618fd8"/><path d="m448.571 357.036c3.519-1.627 18.424 3.52 18.424 3.52l1.508-5.13c-2.601-.527-5.186-1.184-7.725-1.966-1.185-.344-2.344-.772-3.468-1.281-.751-.401-1.523-.761-2.312-1.077-1.944-.669-3.968-.386-5.962-.051-.261 3.65-.465 5.985-.465 5.985z" fill="#12122c" opacity=".663481"/><path d="m522.133 372.482c.227-.097.428-.245.589-.431.161-.187.278-.408.341-.646.1.374.062.772-.109 1.119s-.463.621-.821.768c-3.253 1.627-21.944 2.71-31.17-4.336v-.81c9.226 7.045 27.917 5.963 31.17 4.336z" fill="#fff" opacity=".4"/><path d="m437.871 373.565c5.667 1.354 26.013-1.627 27.906-4.881v.811c-1.899 3.253-22.216 6.235-27.906 4.88-2.324-.567-3.066-1.7-2.834-2.942.182.919 1.032 1.678 2.834 2.132z" fill="#fff" opacity=".4"/><path d="m470.923 176.16s-5.962-1.899-7.589 0c-1.626 1.899-15.528 6.348-15.528 6.348" fill="#000" opacity=".1"/><path d="m403.464 101.703h28.989v-.612h-28.989z" fill="#34ac79"/><path d="m403.464 102.316h28.989v-.613h-28.989z" fill="#8ed16f"/><path d="m403.464 102.316h28.989v-.613h-28.989z" fill="#000" opacity=".1"/><path d="m403.464 102.928h28.989v-.612h-28.989z" fill="#34ac79"/><path d="m403.464 103.534h28.989v-.612h-28.989z" fill="#8ed16f"/><path d="m403.464 103.534h28.989v-.612h-28.989z" fill="#000" opacity=".1"/><path d="m403.464 104.146h28.989v-.612h-28.989z" fill="#34ac79"/><path d="m403.464 104.753h28.989v-.612h-28.989z" fill="#8ed16f"/><path d="m403.464 104.753h28.989v-.612h-28.989z" fill="#000" opacity=".1"/><path d="m403.464 105.365h28.989v-.612h-28.989z" fill="#34ac79"/><path d="m403.464 105.972h28.989v-.613h-28.989z" fill="#8ed16f"/><path d="m403.464 105.972h28.989v-.613h-28.989z" fill="#000" opacity=".1"/><path d="m403.464 96.8289h28.989v-.6122h-28.989z" fill="#34ac79"/><path d="m423.969 82.3356 22.287 18.5394.392-.471-22.288-18.539z" fill="#34ac79"/><path d="m403.649 72.582 22.288 18.5389.391-.4706-22.288-18.539z" fill="#34ac79"/><path d="m403.464 97.4353h28.989v-.6121h-28.989z" fill="#8ed16f"/><path d="m403.464 97.4353h28.989v-.6121h-28.989z" fill="#000" opacity=".1"/><path d="m403.464 98.0532h28.989v-.6122h-28.989z" fill="#34ac79"/><path d="m403.464 98.6597h28.989v-.6122h-28.989z" fill="#8ed16f"/><path d="m403.464 98.6597h28.989v-.6122h-28.989z" fill="#000" opacity=".1"/><path d="m403.464 99.2661h28.989v-.6121h-28.989z" fill="#34ac79"/><path d="m403.464 99.8783h28.989v-.6122h-28.989z" fill="#8ed16f"/><path d="m403.464 99.8783h28.989v-.6122h-28.989z" fill="#000" opacity=".1"/><path d="m403.464 100.485h28.989v-.6123h-28.989z" fill="#34ac79"/><path d="m403.464 101.097h28.989v-.612h-28.989z" fill="#8ed16f"/><path d="m403.464 101.097h28.989v-.612h-28.989z" fill="#000" opacity=".1"/><path d="m399.79 124.865 10.386 1.929 3.759-20.246-10.386-1.929z" fill="#34ac79"/><path d="m409.136 116.166c.437-2.354-.162-4.44-1.337-4.658-1.176-.219-2.483 1.513-2.92 3.868-.437 2.354.161 4.44 1.337 4.658 1.175.218 2.483-1.513 2.92-3.868z" fill="#8ed16f"/><path d="m409.136 116.166c.437-2.354-.162-4.44-1.337-4.658-1.176-.219-2.483 1.513-2.92 3.868-.437 2.354.161 4.44 1.337 4.658 1.175.218 2.483-1.513 2.92-3.868z" fill="#000" opacity=".1"/><path d="m401.567 167.599 10.387 1.929 3.759-20.246-10.387-1.929z" fill="#34ac79"/><path d="m410.908 158.896c.437-2.355-.162-4.44-1.337-4.659-1.176-.218-2.483 1.514-2.921 3.868-.437 2.355.162 4.44 1.337 4.659 1.176.218 2.483-1.514 2.921-3.868z" fill="#8ed16f"/><path d="m410.908 158.896c.437-2.355-.162-4.44-1.337-4.659-1.176-.218-2.483 1.514-2.921 3.868-.437 2.355.162 4.44 1.337 4.659 1.176.218 2.483-1.514 2.921-3.868z" fill="#000" opacity=".1"/><path d="m364.001 62.5596-5.028 9.2921 18.108 9.8006 5.028-9.2921z" fill="#34ac79"/><path d="m376.119 74.5859c.574-1.0523-.669-2.8372-2.776-3.9867s-4.28-1.2283-4.854-.176c-.574 1.0524.669 2.8373 2.776 3.9868s4.28 1.2282 4.854.1759z" fill="#8ed16f"/><path d="m376.119 74.5859c.574-1.0523-.669-2.8372-2.776-3.9867s-4.28-1.2283-4.854-.176c-.574 1.0524.669 2.8373 2.776 3.9868s4.28 1.2282 4.854.1759z" fill="#000" opacity=".1"/><path d="m324.24 245.937-5.028 9.293 18.108 9.8 5.028-9.292z" fill="#8ed16f"/><path d="m334.535 257.672c.569-1.052-.677-2.829-2.783-3.968-2.106-1.14-4.274-1.211-4.843-.16-.57 1.052.676 2.829 2.782 3.968 2.106 1.14 4.275 1.211 4.844.16z" fill="#8ed16f"/><path d="m334.535 257.672c.569-1.052-.677-2.829-2.783-3.968-2.106-1.14-4.274-1.211-4.843-.16-.57 1.052.676 2.829 2.782 3.968 2.106 1.14 4.275 1.211 4.844.16z" fill="#000" opacity=".1"/><path d="m299.913 94.6079-5.028 9.2921 18.108 9.801 5.028-9.293z" fill="#34ac79"/><path d="m310.203 106.334c.569-1.052-.677-2.829-2.783-3.968-2.106-1.14-4.274-1.211-4.843-.16-.57 1.052.676 2.829 2.782 3.968 2.106 1.14 4.275 1.211 4.844.16z" fill="#8ed16f"/><path d="m310.203 106.334c.569-1.052-.677-2.829-2.783-3.968-2.106-1.14-4.274-1.211-4.843-.16-.57 1.052.676 2.829 2.782 3.968 2.106 1.14 4.275 1.211 4.844.16z" fill="#000" opacity=".1"/><path d="m330.403 62.5572-5.028 9.2921 18.108 9.8005 5.028-9.292z" fill="#34ac79"/><path d="m340.692 74.2831c.57-1.0518-.676-2.8283-2.782-3.968-2.106-1.1398-4.274-1.2112-4.844-.1595-.569 1.0518.677 2.8283 2.783 3.968 2.106 1.1398 4.274 1.2112 4.843.1595z" fill="#8ed16f"/><path d="m340.692 74.2831c.57-1.0518-.676-2.8283-2.782-3.968-2.106-1.1398-4.274-1.2112-4.844-.1595-.569 1.0518.677 2.8283 2.783 3.968 2.106 1.1398 4.274 1.2112 4.843.1595z" fill="#000" opacity=".1"/><path d="m360.844 100.375-10.502 1.148 2.238 20.471 10.502-1.149z" fill="#34ac79"/><path d="m357.045 115.512c1.188-.13 1.941-2.165 1.68-4.546-.26-2.38-1.434-4.205-2.623-4.075s-1.941 2.166-1.681 4.546c.26 2.381 1.435 4.205 2.624 4.075z" fill="#8ed16f"/><path d="m357.045 115.512c1.188-.13 1.941-2.165 1.68-4.546-.26-2.38-1.434-4.205-2.623-4.075s-1.941 2.166-1.681 4.546c.26 2.381 1.435 4.205 2.624 4.075z" fill="#000" opacity=".1"/><path d="m432.843 212.467-10.502 1.148 2.238 20.471 10.502-1.149z" fill="#34ac79"/><path d="m429.048 227.604c1.189-.13 1.942-2.165 1.681-4.546-.26-2.38-1.434-4.205-2.623-4.075s-1.941 2.165-1.681 4.546 1.435 4.205 2.623 4.075z" fill="#8ed16f"/><path d="m429.048 227.604c1.189-.13 1.942-2.165 1.681-4.546-.26-2.38-1.434-4.205-2.623-4.075s-1.941 2.165-1.681 4.546 1.435 4.205 2.623 4.075z" fill="#000" opacity=".1"/><path d="m319.724 143.859-5.028 9.292 18.108 9.801 5.028-9.292z" fill="#34ac79"/><path d="m330.01 155.593c.569-1.052-.677-2.828-2.783-3.968s-4.274-1.211-4.843-.16c-.569 1.052.676 2.829 2.782 3.968 2.106 1.14 4.275 1.212 4.844.16z" fill="#8ed16f"/><path d="m330.01 155.593c.569-1.052-.677-2.828-2.783-3.968s-4.274-1.211-4.843-.16c-.569 1.052.676 2.829 2.782 3.968 2.106 1.14 4.275 1.212 4.844.16z" fill="#000" opacity=".1"/><path d="m274.028 130.807-5.028 9.292 18.109 9.8 5.027-9.292z" fill="#34ac79"/><path d="m285.822 143.157c.574-1.052-.669-2.837-2.776-3.986-2.107-1.15-4.281-1.229-4.854-.176-.574 1.052.668 2.837 2.776 3.986 2.107 1.15 4.28 1.229 4.854.176z" fill="#8ed16f"/><path d="m285.822 143.157c.574-1.052-.669-2.837-2.776-3.986-2.107-1.15-4.281-1.229-4.854-.176-.574 1.052.668 2.837 2.776 3.986 2.107 1.15 4.28 1.229 4.854.176z" fill="#000" opacity=".1"/><path d="m259.393 350.564-5.027 9.292 18.108 9.801 5.028-9.292z" fill="#34ac79"/><path d="m269.682 362.293c.57-1.052-.676-2.828-2.782-3.968s-4.274-1.211-4.844-.159c-.569 1.051.677 2.828 2.783 3.968 2.106 1.139 4.274 1.211 4.843.159z" fill="#8ed16f"/><path d="m269.682 362.293c.57-1.052-.676-2.828-2.782-3.968s-4.274-1.211-4.844-.159c-.569 1.051.677 2.828 2.783 3.968 2.106 1.139 4.274 1.211 4.843.159z" fill="#000" opacity=".1"/><path d="m246.219 354.146-1.927 10.388 20.244 3.756 1.927-10.388z" fill="#8ed16f"/><path d="m246.219 354.146-1.927 10.388 20.244 3.756 1.927-10.388z" fill="#34ac79" opacity=".800688"/><path d="m259.619 362.141c.219-1.176-1.513-2.483-3.867-2.92-2.355-.437-4.44.162-4.658 1.338s1.514 2.483 3.868 2.92c2.354.436 4.439-.163 4.657-1.338z" fill="#8ed16f"/><path d="m259.619 362.141c.219-1.176-1.513-2.483-3.867-2.92-2.355-.437-4.44.162-4.658 1.338s1.514 2.483 3.868 2.92c2.354.436 4.439-.163 4.657-1.338z" fill="#000" opacity=".1"/><path d="m248.115 360.376-1.927 10.388 20.244 3.756 1.927-10.388z" fill="#34ac79"/><path d="m261.51 368.37c.218-1.175-1.513-2.483-3.868-2.919-2.354-.437-4.439.162-4.657 1.338-.218 1.175 1.513 2.483 3.868 2.919 2.354.437 4.439-.162 4.657-1.338z" fill="#8ed16f"/><path d="m261.51 368.37c.218-1.175-1.513-2.483-3.868-2.919-2.354-.437-4.439.162-4.657 1.338-.218 1.175 1.513 2.483 3.868 2.919 2.354.437 4.439-.162 4.657-1.338z" fill="#000" opacity=".1"/><path d="m280.753 377.272-5.028 9.292 18.108 9.8 5.028-9.292z" fill="#34ac79"/><path d="m291.048 389c.569-1.051-.677-2.828-2.783-3.968-2.106-1.139-4.274-1.211-4.843-.159s.677 2.828 2.782 3.968c2.106 1.14 4.275 1.211 4.844.159z" fill="#8ed16f"/><path d="m291.048 389c.569-1.051-.677-2.828-2.783-3.968-2.106-1.139-4.274-1.211-4.843-.159s.677 2.828 2.782 3.968c2.106 1.14 4.275 1.211 4.844.159z" fill="#000" opacity=".1"/><path d="m267.582 380.846-1.926 10.388 20.244 3.757 1.927-10.389z" fill="#8ed16f"/><path d="m267.582 380.846-1.926 10.388 20.244 3.757 1.927-10.389z" fill="#34ac79" opacity=".800688"/><path d="m280.978 388.841c.218-1.176-1.514-2.483-3.868-2.92-2.355-.437-4.44.162-4.658 1.338s1.514 2.483 3.868 2.92 4.44-.162 4.658-1.338z" fill="#8ed16f"/><path d="m280.978 388.841c.218-1.176-1.514-2.483-3.868-2.92-2.355-.437-4.44.162-4.658 1.338s1.514 2.483 3.868 2.92 4.44-.162 4.658-1.338z" fill="#000" opacity=".1"/><path d="m269.478 387.082-1.927 10.389 20.244 3.756 1.927-10.388z" fill="#34ac79"/><path d="m282.879 395.077c.218-1.176-1.514-2.483-3.868-2.92-2.354-.436-4.44.163-4.658 1.338-.218 1.176 1.514 2.483 3.868 2.92s4.44-.162 4.658-1.338z" fill="#8ed16f"/><path d="m282.879 395.077c.218-1.176-1.514-2.483-3.868-2.92-2.354-.436-4.44.163-4.658 1.338-.218 1.176 1.514 2.483 3.868 2.92s4.44-.162 4.658-1.338z" fill="#000" opacity=".1"/><path d="m312.801 360.06-5.028 9.292 18.108 9.801 5.028-9.292z" fill="#34ac79"/><path d="m323.085 371.786c.569-1.052-.677-2.828-2.783-3.968s-4.274-1.211-4.843-.159c-.569 1.051.677 2.828 2.783 3.968 2.105 1.139 4.274 1.211 4.843.159z" fill="#8ed16f"/><path d="m323.085 371.786c.569-1.052-.677-2.828-2.783-3.968s-4.274-1.211-4.843-.159c-.569 1.051.677 2.828 2.783 3.968 2.105 1.139 4.274 1.211 4.843.159z" fill="#000" opacity=".1"/><path d="m299.627 363.638-1.927 10.388 20.244 3.756 1.927-10.388z" fill="#8ed16f"/><path d="m299.627 363.638-1.927 10.388 20.244 3.756 1.927-10.388z" fill="#34ac79" opacity=".800688"/><path d="m313.022 371.633c.218-1.176-1.513-2.483-3.868-2.92-2.354-.437-4.439.162-4.657 1.338s1.513 2.483 3.868 2.92c2.354.437 4.439-.162 4.657-1.338z" fill="#8ed16f"/><path d="m313.022 371.633c.218-1.176-1.513-2.483-3.868-2.92-2.354-.437-4.439.162-4.657 1.338s1.513 2.483 3.868 2.92c2.354.437 4.439-.162 4.657-1.338z" fill="#000" opacity=".1"/><path d="m301.523 369.873-1.927 10.389 20.244 3.756 1.927-10.388z" fill="#34ac79"/><path d="m314.923 377.869c.219-1.176-1.513-2.483-3.867-2.92-2.355-.437-4.44.162-4.658 1.338s1.513 2.483 3.868 2.92c2.354.437 4.439-.162 4.657-1.338z" fill="#8ed16f"/><path d="m314.923 377.869c.219-1.176-1.513-2.483-3.867-2.92-2.355-.437-4.44.162-4.658 1.338s1.513 2.483 3.868 2.92c2.354.437 4.439-.162 4.657-1.338z" fill="#000" opacity=".1"/></g></g></svg>