<svg id="Layer_5" enable-background="new 0 0 64 64" height="512" viewBox="0 0 64 64" width="512" xmlns="http://www.w3.org/2000/svg"><g><g><g><path d="m4 42h8v20h-8z" fill="#ff826e"/></g><g><path d="m16 44h8v18h-8z" fill="#ff826e"/></g><g><path d="m53 62h-13v-38h8v10h-.17c-1.56 0-2.83 1.27-2.83 2.83 0 .75.3 1.47.83 2l3.17 3.17-3.63 5.81c-.9 1.43-1.37 3.08-1.37 4.77v.42c0 4.97 4.03 9 9 9z" fill="#ff826e"/></g><g><path d="m28 32h8v30h-8z" fill="#ff826e"/></g><g><path d="m51.08 34c.28-1.15 1.32-2 2.55-2h2.74c.73 0 1.38.3 1.86.77.47.48.77 1.13.77 1.86 0 .25-.03.49-.1.72l-1.9 6.65h-8l-3.17-3.17c-.53-.53-.83-1.25-.83-2 0-1.56 1.27-2.83 2.83-2.83h.17z" fill="#a0d468"/></g><g><path d="m49 42h8l3.63 5.81c.9 1.43 1.37 3.08 1.37 4.77v.42c0 2.48-1.01 4.74-2.64 6.36-1.62 1.63-3.88 2.64-6.36 2.64-4.97 0-9-4.03-9-9v-.42c0-1.69.47-3.34 1.37-4.77z" fill="#b4dd7f"/></g><g><path d="m46.12 14.88c.54.54.88 1.29.88 2.12 0 1.66-1.34 3-3 3-1.12 0-2.09-.61-2.6-1.51-.25-.44-.4-.95-.4-1.49 0-1.66 1.34-3 3-3 .83 0 1.58.34 2.12.88z" fill="#fcd770"/></g><g><path d="m32.61 23.52c.25.43.39.94.39 1.48 0 1.66-1.34 3-3 3-1.49 0-2.73-1.09-2.96-2.51-.03-.16-.04-.32-.04-.49 0-1.66 1.34-3 3-3 1.12 0 2.1.61 2.61 1.52z" fill="#fcd770"/></g><g><path d="m21.86 26.36c.09.53.14 1.08.14 1.64 0 5.52-4.48 10-10 10s-10-4.48-10-10 4.48-10 10-10c4.96 0 9.08 3.62 9.86 8.36z" fill="#fcd770"/></g></g><g><path d="m11 32.855v2.145h2v-2.145c1.155-.366 2-1.435 2-2.709 0-1.087-.604-2.066-1.578-2.553l-1.95-.974c-.291-.146-.472-.439-.472-.765 0-.471.383-.854.854-.854h.292c.471 0 .854.383.854.854v.146h2v-.146c0-1.274-.845-2.343-2-2.709v-2.145h-2v2.145c-1.155.366-2 1.435-2 2.709 0 1.087.604 2.066 1.578 2.553l1.95.974c.291.146.472.439.472.765 0 .471-.383.854-.854.854h-.292c-.471 0-.854-.383-.854-.854v-1.146h-2v1.146c0 1.274.845 2.343 2 2.709z"/><path d="m12 39c6.065 0 11-4.935 11-11 0-.274-.021-.543-.041-.813l3.392-.566c.624 1.399 2.022 2.379 3.649 2.379 2.206 0 4-1.794 4-4 0-.364-.065-.71-.156-1.045l7.295-4.169c.727.747 1.739 1.214 2.861 1.214 2.206 0 4-1.794 4-4 0-.74-.215-1.424-.567-2.019l10.567-10.567v5.586h2v-9h-9v2h5.586l-10.567 10.567c-.595-.352-1.279-.567-2.019-.567-2.206 0-4 1.794-4 4 0 .364.065.71.156 1.045l-7.295 4.169c-.727-.747-1.739-1.214-2.861-1.214-2.085 0-3.782 1.609-3.964 3.647l-3.407.568c-1.238-4.719-5.527-8.215-10.629-8.215-6.065 0-11 4.935-11 11s4.935 11 11 11zm32-24c1.103 0 2 .897 2 2s-.897 2-2 2-2-.897-2-2 .897-2 2-2zm-14 8c1.103 0 2 .897 2 2s-.897 2-2 2-2-.897-2-2 .897-2 2-2zm-18-4c4.962 0 9 4.038 9 9s-4.038 9-9 9-9-4.038-9-9 4.038-9 9-9z"/><path d="m3 63h10v-22h-10zm2-20h6v18h-6z"/><path d="m15 63h10v-20h-10zm2-18h6v16h-6z"/><path d="m27 63h10v-32h-10zm2-30h6v28h-6z"/><path d="m54 47.145v-2.145h-2v2.145c-1.155.366-2 1.435-2 2.709 0 1.087.604 2.065 1.578 2.553l1.95.975c.291.145.472.438.472.764 0 .47-.383.854-.854.854h-.292c-.471 0-.854-.384-.854-.854v-1.146h-2v1.146c0 1.275.845 2.344 2 2.709v2.145h2v-2.145c1.155-.366 2-1.435 2-2.709 0-1.087-.604-2.065-1.578-2.553l-1.95-.975c-.291-.145-.472-.438-.472-.764 0-.47.383-.854.854-.854h.292c.471 0 .854.384.854.854v.146h2v-.146c0-1.274-.845-2.343-2-2.709z"/><path d="m61.48 47.281-3.396-5.434 1.777-6.219c.092-.325.139-.66.139-.996 0-2.003-1.629-3.632-3.631-3.632h-2.737c-1.413 0-2.626.819-3.226 2h-1.406v-10h-10v40h14c5.514 0 10-4.486 10-10v-.419c0-1.877-.526-3.709-1.52-5.3zm-9.48-12.649c0-.9.732-1.632 1.631-1.632h2.737c.9 0 1.632.732 1.632 1.632 0 .151-.021.302-.063.448l-1.691 5.92h-6.832l-2.879-2.879c-.34-.341-.535-.811-.535-1.293 0-1.008.82-1.828 1.829-1.828h2.171v2h2zm-11 26.368v-36h6v8.096c-1.713.38-3 1.907-3 3.732 0 1.023.398 1.984 1.122 2.707l2.609 2.609-3.21 5.137c-.995 1.591-1.521 3.423-1.521 5.3v.419c0 3.273 1.588 6.175 4.026 8zm20-8c0 4.411-3.589 8-8 8s-8-3.589-8-8v-.419c0-1.501.42-2.967 1.216-4.239l3.338-5.342h6.892l3.338 5.342c.796 1.272 1.216 2.738 1.216 4.239z"/></g></g></svg>